# xmcd CD database file
#
# Track frame offsets:
#	150
#	20300
#	33685
#	47942
#	62820
#	76417
#	90327
#	105787
#	116557
#	125970
#	137105
#	152972
#	169262
#	184950
#	198327
#	212512
#
# Disc length: 3243 seconds
#
# Revision: 1
# Processed by: cddbd v1.4PL0 Copyright (c) Steve Scherf et al.
# Submitted via: CDex 1.50Beta7
#
DISCID=df0ca910
DTITLE=Various Artist - Mis 50 Preferidas (Volume 1)
DYEAR=2001
DGENRE=Salsa
TTITLE0=Yolonda
TTITLE1=Guajira Guantanamera
TTITLE2=Unicornio
TTITLE3=Dos Gardenias
TTITLE4=Lágrimas Negras
TTITLE5=Longina
TTITLE6=Nosotros
TTITLE7=El Manisero
TTITLE8=La Gloria Eres Tú
TTITLE9=La Engañadora
TTITLE10=¡Oh, Vida!
TTITLE11=Ojalá
TTITLE12=Contigo En La Distancia
TTITLE13=Si Me Pudieras Querer
TTITLE14=Veinte Años
TTITLE15=Por Encima Del Nivel
EXTD=YEAR: 2001
EXTT0=
EXTT1=
EXTT2=
EXTT3=
EXTT4=
EXTT5=
EXTT6=
EXTT7=
EXTT8=
EXTT9=
EXTT10=
EXTT11=
EXTT12=
EXTT13=
EXTT14=
EXTT15=
PLAYORDER=
